<mxfile host="app.diagrams.net" modified="2023-07-31T06:26:43.728Z" agent="Mozilla/5.0 (Windows NT 10.0; Win64; x64) AppleWebKit/537.36 (KHTML, like Gecko) Chrome/115.0.0.0 Safari/537.36" version="21.6.5" etag="PstM8DvwZbIrdOIsNvn1" type="github">
  <diagram name="Trang-1" id="9uQy-ShIGF_INdZmfvb-">
    <mxGraphModel>
      <root>
        <mxCell id="0" />
        <mxCell id="1" parent="0" />
      </root>
    </mxGraphModel>
  </diagram>
</mxfile>
